<?xml version="1.0" standalone="no"?>
<!DOCTYPE svg PUBLIC "-//W3C//DTD SVG 20010904//EN"
 "http://www.w3.org/TR/2001/REC-SVG-20010904/DTD/svg10.dtd">
<svg version="1.0" xmlns="http://www.w3.org/2000/svg"
 width="57.000000pt" height="77.000000pt" viewBox="0 0 57.000000 77.000000"
 preserveAspectRatio="xMidYMid meet">

<g transform="translate(0.000000,77.000000) scale(0.100000,-0.100000)"
fill="#000000" stroke="none">
<path d="M0 385 l0 -385 285 0 285 0 0 385 0 385 -285 0 -285 0 0 -385z m480
266 c6 -12 10 -112 10 -255 0 -222 -1 -236 -19 -246 -11 -5 -86 -10 -170 -10
-138 0 -151 2 -161 19 -6 12 -10 112 -10 255 0 213 2 236 18 245 9 6 85 11
169 11 141 0 153 -1 163 -19z"/>
<path d="M170 405 l0 -225 140 0 140 0 0 225 0 225 -140 0 -140 0 0 -225z
m168 -97 c28 -28 7 -78 -33 -78 -40 0 -61 50 -33 78 7 7 21 12 33 12 12 0 26
-5 33 -12z"/>
</g>
</svg>
