<?xml version="1.0" standalone="no"?>
<!DOCTYPE svg PUBLIC "-//W3C//DTD SVG 20010904//EN"
 "http://www.w3.org/TR/2001/REC-SVG-20010904/DTD/svg10.dtd">
<svg version="1.0" xmlns="http://www.w3.org/2000/svg"
 width="57.000000pt" height="69.000000pt" viewBox="0 0 57.000000 69.000000"
 preserveAspectRatio="xMidYMid meet">

<g transform="translate(0.000000,69.000000) scale(0.100000,-0.100000)"
fill="#000000" stroke="none">
<path d="M0 345 l0 -345 285 0 285 0 0 345 0 345 -285 0 -285 0 0 -345z m388
233 c7 -7 12 -25 12 -40 0 -25 4 -28 33 -28 18 0 38 -5 45 -12 9 -9 12 -69 12
-210 0 -185 -1 -198 -19 -208 -11 -5 -86 -10 -170 -10 -138 0 -151 2 -161 19
-6 12 -10 98 -10 210 0 178 1 191 19 201 11 5 31 10 45 10 22 0 26 5 26 28 0
42 17 52 90 52 38 0 71 -5 78 -12z"/>
<path d="M260 530 c0 -17 7 -20 50 -20 43 0 50 3 50 20 0 17 -7 20 -50 20 -43
0 -50 -3 -50 -20z"/>
<path d="M170 290 l0 -180 140 0 140 0 0 180 0 180 -140 0 -140 0 0 -180z"/>
</g>
</svg>
