<svg width="374" height="76" viewBox="0 0 374 76" fill="none" xmlns="http://www.w3.org/2000/svg">
<path opacity="0.1" d="M64.7 75L64.6 28.6L41.6 67H35.8L12.8 29.2V75H0.4V5H11.1L38.9 51.4L66.2 5H76.9L77 75H64.7ZM118.708 75.7C113.308 75.7 108.441 74.5333 104.108 72.2C99.7745 69.8667 96.3745 66.6333 93.9078 62.5C91.5078 58.3 90.3078 53.5667 90.3078 48.3C90.3078 43.0333 91.5078 38.3333 93.9078 34.2C96.3745 30.0667 99.7745 26.8333 104.108 24.5C108.441 22.1667 113.308 21 118.708 21C124.174 21 129.074 22.1667 133.408 24.5C137.741 26.8333 141.108 30.0667 143.508 34.2C145.974 38.3333 147.208 43.0333 147.208 48.3C147.208 53.5667 145.974 58.3 143.508 62.5C141.108 66.6333 137.741 69.8667 133.408 72.2C129.074 74.5333 124.174 75.7 118.708 75.7ZM118.708 65C123.308 65 127.108 63.4667 130.108 60.4C133.108 57.3333 134.608 53.3 134.608 48.3C134.608 43.3 133.108 39.2667 130.108 36.2C127.108 33.1333 123.308 31.6 118.708 31.6C114.108 31.6 110.308 33.1333 107.308 36.2C104.374 39.2667 102.908 43.3 102.908 48.3C102.908 53.3 104.374 57.3333 107.308 60.4C110.308 63.4667 114.108 65 118.708 65ZM211.461 0.799996V75H199.461V68.1C197.394 70.6333 194.828 72.5333 191.761 73.8C188.761 75.0667 185.428 75.7 181.761 75.7C176.628 75.7 171.994 74.5667 167.861 72.3C163.794 70.0333 160.594 66.8333 158.261 62.7C155.928 58.5 154.761 53.7 154.761 48.3C154.761 42.9 155.928 38.1333 158.261 34C160.594 29.8667 163.794 26.6667 167.861 24.4C171.994 22.1333 176.628 21 181.761 21C185.294 21 188.528 21.6 191.461 22.8C194.394 24 196.894 25.8 198.961 28.2V0.799996H211.461ZM183.261 65C186.261 65 188.961 64.3333 191.361 63C193.761 61.6 195.661 59.6333 197.061 57.1C198.461 54.5667 199.161 51.6333 199.161 48.3C199.161 44.9667 198.461 42.0333 197.061 39.5C195.661 36.9667 193.761 35.0333 191.361 33.7C188.961 32.3 186.261 31.6 183.261 31.6C180.261 31.6 177.561 32.3 175.161 33.7C172.761 35.0333 170.861 36.9667 169.461 39.5C168.061 42.0333 167.361 44.9667 167.361 48.3C167.361 51.6333 168.061 54.5667 169.461 57.1C170.861 59.6333 172.761 61.6 175.161 63C177.561 64.3333 180.261 65 183.261 65ZM278.013 48.6C278.013 49.4667 277.947 50.7 277.813 52.3H235.913C236.647 56.2333 238.547 59.3667 241.613 61.7C244.747 63.9667 248.613 65.1 253.213 65.1C259.08 65.1 263.913 63.1667 267.713 59.3L274.413 67C272.013 69.8667 268.98 72.0333 265.313 73.5C261.647 74.9667 257.513 75.7 252.913 75.7C247.047 75.7 241.88 74.5333 237.413 72.2C232.947 69.8667 229.48 66.6333 227.013 62.5C224.613 58.3 223.413 53.5667 223.413 48.3C223.413 43.1 224.58 38.4333 226.913 34.3C229.313 30.1 232.613 26.8333 236.813 24.5C241.013 22.1667 245.747 21 251.013 21C256.213 21 260.847 22.1667 264.913 24.5C269.047 26.7667 272.247 30 274.513 34.2C276.847 38.3333 278.013 43.1333 278.013 48.6ZM251.013 31C247.013 31 243.613 32.2 240.813 34.6C238.08 36.9333 236.413 40.0667 235.813 44H266.113C265.58 40.1333 263.947 37 261.213 34.6C258.48 32.2 255.08 31 251.013 31ZM290.02 0.799996H302.52V75H290.02V0.799996ZM369.463 76C364.063 76 358.83 75.2333 353.763 73.7C348.763 72.1667 344.797 70.1333 341.863 67.6L346.363 57.5C349.23 59.7667 352.73 61.6333 356.863 63.1C361.063 64.5 365.263 65.2 369.463 65.2C374.663 65.2 378.53 64.3667 381.063 62.7C383.663 61.0333 384.963 58.8333 384.963 56.1C384.963 54.1 384.23 52.4667 382.763 51.2C381.363 49.8667 379.563 48.8333 377.363 48.1C375.163 47.3667 372.163 46.5333 368.363 45.6C363.03 44.3333 358.697 43.0667 355.363 41.8C352.097 40.5333 349.263 38.5667 346.863 35.9C344.53 33.1667 343.363 29.5 343.363 24.9C343.363 21.0333 344.397 17.5333 346.463 14.4C348.597 11.2 351.763 8.66666 355.963 6.8C360.23 4.93333 365.43 4 371.563 4C375.83 4 380.03 4.53333 384.163 5.6C388.297 6.66666 391.863 8.2 394.863 10.2L390.763 20.3C387.697 18.5 384.497 17.1333 381.163 16.2C377.83 15.2667 374.597 14.8 371.463 14.8C366.33 14.8 362.497 15.6667 359.963 17.4C357.497 19.1333 356.263 21.4333 356.263 24.3C356.263 26.3 356.963 27.9333 358.363 29.2C359.83 30.4667 361.663 31.4667 363.863 32.2C366.063 32.9333 369.063 33.7667 372.863 34.7C378.063 35.9 382.33 37.1667 385.663 38.5C388.997 39.7667 391.83 41.7333 394.163 44.4C396.563 47.0667 397.763 50.6667 397.763 55.2C397.763 59.0667 396.697 62.5667 394.563 65.7C392.497 68.8333 389.33 71.3333 385.063 73.2C380.797 75.0667 375.597 76 369.463 76Z" fill="#E51937"/>
</svg>
