<svg width="589" height="113" fill="none" xmlns="http://www.w3.org/2000/svg"><path opacity=".1" d="M113.889 110.603l-.147-103.6H97.905L57.502 75.675 16.358 7.003H.52v103.6h18.352V42.819l34.04 55.944h8.585l34.04-56.832.148 68.672h18.203zm61.728 1.036c24.568 0 42.18-16.872 42.18-40.552s-17.612-40.404-42.18-40.404c-24.272 0-42.032 16.724-42.032 40.404 0 23.68 17.76 40.552 42.032 40.552zm0-15.836c-13.32 0-23.384-9.62-23.384-24.716 0-15.096 10.064-24.716 23.384-24.716 13.468 0 23.532 9.62 23.532 24.716 0 15.096-10.064 24.716-23.532 24.716zM294.392.787v40.552c-6.216-7.252-15.244-10.656-25.456-10.656-22.94 0-39.96 15.836-39.96 40.404 0 24.568 17.02 40.552 39.96 40.552 10.804 0 19.98-3.7 26.196-11.248v10.212h17.76V.787h-18.5zm-23.236 95.016c-13.32 0-23.532-9.62-23.532-24.716 0-15.096 10.212-24.716 23.532-24.716s23.532 9.62 23.532 24.716c0 15.096-10.212 24.716-23.532 24.716zm140.233-24.272c0-24.716-16.872-40.848-39.96-40.848-23.532 0-40.848 16.872-40.848 40.404 0 23.532 17.168 40.552 43.66 40.552 13.616 0 24.716-4.44 31.82-12.876l-9.916-11.396c-5.624 5.772-12.58 8.584-21.46 8.584-13.764 0-23.384-7.4-25.604-18.944h62.012c.148-1.776.296-3.996.296-5.476zm-39.96-26.048c12.136 0 20.868 7.844 22.348 19.24h-44.844c1.776-11.544 10.508-19.24 22.496-19.24zm57.731 65.12h18.5V.787h-18.5v109.816zm117.575 1.48c28.416 0 41.884-14.208 41.884-30.784 0-38.036-61.42-23.68-61.42-45.732 0-7.844 6.512-14.06 22.496-14.06 9.028 0 19.24 2.664 28.564 8.14l6.068-14.948c-9.028-5.92-22.052-9.176-34.484-9.176-28.416 0-41.736 14.208-41.736 30.932 0 38.48 61.568 23.828 61.568 46.176 0 7.696-6.808 13.468-22.94 13.468-12.728 0-25.9-4.736-34.188-11.396l-6.66 14.948c8.584 7.4 24.716 12.432 40.848 12.432z" fill="#E51937"/></svg>