<?xml version="1.0" standalone="no"?>
<!DOCTYPE svg PUBLIC "-//W3C//DTD SVG 20010904//EN"
 "http://www.w3.org/TR/2001/REC-SVG-20010904/DTD/svg10.dtd">
<svg version="1.0" xmlns="http://www.w3.org/2000/svg"
 width="60.000000pt" height="66.000000pt" viewBox="0 0 60.000000 66.000000"
 preserveAspectRatio="xMidYMid meet">

<g transform="translate(0.000000,66.000000) scale(0.100000,-0.100000)"
fill="#000000" stroke="none">
<path d="M0 330 l0 -330 300 0 300 0 0 330 0 330 -300 0 -300 0 0 -330z m440
111 c53 -27 90 -59 90 -78 0 -25 -29 -25 -63 1 -95 73 -218 73 -313 1 -35 -27
-64 -28 -64 -1 0 18 63 68 115 89 57 24 175 18 235 -12z m-69 -72 c21 -7 53
-24 71 -40 31 -26 32 -29 16 -45 -15 -16 -18 -15 -47 6 -67 47 -145 47 -205
-1 -26 -20 -29 -21 -44 -5 -16 16 -15 19 16 45 56 47 122 61 193 40z m7 -105
c12 -8 22 -24 22 -35 0 -18 -4 -20 -27 -14 -58 14 -101 17 -107 6 -4 -6 -16
-11 -27 -11 -34 0 -20 42 21 63 38 19 78 16 118 -9z m-48 -79 c6 -8 10 -22 8
-32 -5 -25 -51 -25 -56 0 -4 18 14 47 28 47 4 0 13 -7 20 -15z"/>
</g>
</svg>
